# xmcd CD database file
#
# Track frame offsets:
#	150
#	14933
#	29693
#	45942
#	57609
#	68964
#	84748
#	98332
#	113232
#	129373
#	146956
#	159999
#	175401
#	189561
#	203826
#	213085
#	225967
#	243774
#	255841
#	272653
#
# Disc length: 4360 seconds
#
# Revision: 0
# Processed by: cddbd v1.5.1PL0 Copyright (c) Steve Scherf et al.
# Submitted via: CDex 1.50beta9
#
DISCID=13110614
DTITLE=Oscar Peterson - The Canadian Giant
DYEAR=2003
DGENRE=Jazz
TTITLE0=Strike Up The Band
TTITLE1=Robbins' Nest
TTITLE2=I'll Remember April
TTITLE3=Smiles
TTITLE4=But Not for Me
TTITLE5=Squatty Roo
TTITLE6=Louise
TTITLE7=I Got Rhythm
TTITLE8=What Is It ?
TTITLE9=Oh, Lady Be Good
TTITLE10=Caravan
TTITLE11=These Foolish Things
TTITLE12=Love Walked In
TTITLE13=Sweet Lorraine
TTITLE14=Medium Dance (ad lib)
TTITLE15=Too Marvelous for Words
TTITLE16=You Go to My Head
TTITLE17=Somebody Loves Me
TTITLE18=A Foggy Day
TTITLE19=The Astaire Blues
EXTD=YEAR: 2003
EXTT0=
EXTT1=
EXTT2=
EXTT3=
EXTT4=
EXTT5=
EXTT6=
EXTT7=
EXTT8=
EXTT9=
EXTT10=
EXTT11=
EXTT12=
EXTT13=
EXTT14=
EXTT15=
EXTT16=
EXTT17=
EXTT18=
EXTT19=
PLAYORDER=
